<?xml version="1.0" encoding="UTF-8" standalone="no" ?>
<!DOCTYPE svg PUBLIC "-//W3C//DTD SVG 1.1//EN" "http://www.w3.org/Graphics/SVG/1.1/DTD/svg11.dtd">
<svg xmlns="http://www.w3.org/2000/svg" xmlns:xlink="http://www.w3.org/1999/xlink" version="1.1" width="62" height="62" viewBox="0 0 62 62" xml:space="preserve">
<desc>Created with Fabric.js 3.6.6</desc>
<defs>
</defs>
<g transform="matrix(1 0 0 1 31.1 31.1)"  >
<path style="stroke: none; stroke-width: 1; stroke-dasharray: none; stroke-linecap: butt; stroke-dashoffset: 0; stroke-linejoin: miter; stroke-miterlimit: 4; fill: rgb(0,0,0); fill-rule: nonzero; opacity: 1;"  transform=" translate(-50, -50)" d="M 77.9 80.6 H 67.3 c -1.5 0 -2.7 -1.2 -2.7 -2.7 V 67.3 c 0 -1.5 1.2 -2.7 2.7 -2.7 h 10.6 c 1.5 0 2.7 1.2 2.7 2.7 v 10.6 C 80.6 79.4 79.4 80.6 77.9 80.6 z M 22.1 80.6 h 10.6 c 1.5 0 2.7 -1.2 2.7 -2.7 V 67.3 c 0 -1.5 -1.2 -2.7 -2.7 -2.7 H 22.1 c -1.5 0 -2.7 1.2 -2.7 2.7 v 10.6 C 19.4 79.4 20.6 80.6 22.1 80.6 z M 44.7 35.4 h 10.6 c 1.5 0 2.7 -1.2 2.7 -2.7 V 22.1 c 0 -1.5 -1.2 -2.7 -2.7 -2.7 H 44.7 c -1.5 0 -2.7 1.2 -2.7 2.7 v 10.6 C 42 34.2 43.2 35.4 44.7 35.4 z M 80.6 44.7 c 0 -1.5 -1.2 -2.7 -2.7 -2.7 H 67.3 c -1.5 0 -2.7 1.2 -2.7 2.7 v 10.6 c 0 1.5 1.2 2.7 2.7 2.7 h 10.6 c 1.5 0 2.7 -1.2 2.7 -2.7 V 44.7 z M 42 77.9 c 0 1.5 1.2 2.7 2.7 2.7 h 10.6 c 1.5 0 2.7 -1.2 2.7 -2.7 V 67.3 c 0 -1.5 -1.2 -2.7 -2.7 -2.7 H 44.7 c -1.5 0 -2.7 1.2 -2.7 2.7 V 77.9 z M 80.6 22.1 c 0 -1.5 -1.2 -2.7 -2.7 -2.7 H 67.3 c -1.5 0 -2.7 1.2 -2.7 2.7 v 10.6 c 0 1.5 1.2 2.7 2.7 2.7 h 10.6 c 1.5 0 2.7 -1.2 2.7 -2.7 V 22.1 z M 22.1 58 h 10.6 c 1.5 0 2.7 -1.2 2.7 -2.7 V 44.7 c 0 -1.5 -1.2 -2.7 -2.7 -2.7 H 22.1 c -1.5 0 -2.7 1.2 -2.7 2.7 v 10.6 C 19.4 56.8 20.6 58 22.1 58 z M 22.1 35.4 h 10.6 c 1.5 0 2.7 -1.2 2.7 -2.7 V 22.1 c 0 -1.5 -1.2 -2.7 -2.7 -2.7 H 22.1 c -1.5 0 -2.7 1.2 -2.7 2.7 v 10.6 C 19.4 34.2 20.6 35.4 22.1 35.4 z M 42 55.3 c 0 1.5 1.2 2.7 2.7 2.7 h 10.6 c 1.5 0 2.7 -1.2 2.7 -2.7 V 44.7 c 0 -1.5 -1.2 -2.7 -2.7 -2.7 H 44.7 c -1.5 0 -2.7 1.2 -2.7 2.7 V 55.3 z" stroke-linecap="round" />
</g>
</svg>